#!OML:ASF H:\Terrain\Patient Classification 1\Takeo\Monday\TakeoMonday.ASF
:FULLY-SPECIFIED
:DEGREES
32
root 10.0541 16.3848 -33.2969 -1.26925 -6.43532 1.91977
lowerback 8.74307 0.541092 -2.61718
upperback 1.27385 0.422509 -1.19642
thorax -3.59099 0.235457 0.183135
lowerneck -12.2017 1.84199 -3.30194
upperneck -1.77803 2.83375 2.48074
head 1.43455 1.48868 1.49565
rclavicle 1.98785e-016 5.36719e-015
rhumerus -29.057 18.6297 -90.7814
rradius 45.4069
rwrist -20.7274
rhand -31.2961 22.2972
rfingers 7.12502
rthumb -4.56908 -7.6335
lclavicle 1.98785e-016 5.36719e-015
lhumerus -45.1439 26.0392 70.1765
lradius 17.1711
lwrist 13.1351
lhand -25.1928 21.1977
lfingers 7.12502
lthumb 1.32532 51.1734
rfemur 2.34833 6.83574 20.316
rtibia 60.9008
rfoot 7.7389 -9.74298
rtoes -28.3761
lfemur -25.8415 1.36288 -25.047
ltibia 41.6598
lfoot -14.2425 9.71332
ltoes -3.88836
33
root 10.0762 16.4709 -33.0726 -1.39289 -6.13422 1.57882
lowerback 9.10832 0.316577 -2.03413
upperback 1.06177 0.165445 -1.15695
thorax -4.00763 0.104723 -0.076218
lowerneck -11.9203 1.9254 -3.50925
upperneck -1.35234 2.95117 2.85226
head 1.51593 1.55437 1.65983
rclavicle -1.07095e-014 0
rhumerus -30.3171 18.4712 -91.3627
rradius 44.1847
rwrist -20.5372
rhand -30.8104 21.9061
rfingers 7.12502
rthumb -4.10003 -8.03423
lclavicle -1.07095e-014 0
lhumerus -43.9891 23.7328 72.5455
lradius 18.9119
lwrist 16.215
lhand -25.9325 21.3632
lfingers 7.12502
lthumb 0.610939 51.3421
rfemur -0.0113762 6.58103 20.7034
rtibia 63.2919
rfoot 8.12574 -9.74251
rtoes -30.4122
lfemur -24.3124 1.13287 -24.8114
ltibia 40.8866
lfoot -14.6712 9.39867
ltoes -3.75322
34
root 10.0917 16.5366 -32.8551 -1.41989 -5.98245 1.20614
lowerback 8.95329 0.289342 -1.59091
upperback 1.10255 0.182433 -1.05963
thorax -3.87778 0.106183 -0.225463
lowerneck -11.6218 1.86178 -3.40528
upperneck -1.15846 2.84248 2.84186
head 1.53186 1.49738 1.63015
rclavicle -6.01324e-015 1.98785e-015
rhumerus -31.1151 17.8996 -91.568
rradius 42.9357
rwrist -20.2704
rhand -30.5951 21.7274
rfingers 7.12502
rthumb -3.89212 -8.21684
lclavicle -6.01324e-015 1.98785e-015
lhumerus -42.5685 21.5318 74.8339
lradius 20.7914
lwrist 18.441
lhand -26.3085 20.9815
lfingers 7.12502
lthumb 0.247799 50.9611
rfemur -2.16368 6.31847 21.0955
rtibia 65.2868
rfoot 7.79803 -10.3155
rtoes -29.5477
lfemur -22.9498 0.98331 -24.5197
ltibia 40.1706
lfoot -15.2907 9.25392
ltoes -3.59537
35
root 10.1026 16.5792 -32.6367 -1.47748 -5.83761 1.19727
lowerback 8.98849 0.222734 -1.53593
upperback 0.975371 0.0969846 -1.04516
thorax -4.02889 0.0643252 -0.231665
lowerneck -11.1068 1.80478 -3.42251
upperneck -1.0453 2.75303 2.83657
head 1.48093 1.44926 1.61875
rclavicle -9.7653e-015 2.38542e-015
rhumerus -32.0938 17.5152 -91.9227
rradius 41.6371
rwrist -20.0267
rhand -30.6372 21.5909
rfingers 7.12502
rthumb -3.93279 -8.3525
lclavicle -9.7653e-015 2.38542e-015
lhumerus -41.8087 20.4441 75.8135
lradius 22.2887
lwrist 17.7975
lhand -24.6757 19.563
lfingers 7.12502
lthumb 1.82478 49.535
rfemur -4.05833 6.01872 21.0832
rtibia 67.109
rfoot 6.76411 -10.9038
rtoes -26.8218
lfemur -21.5592 0.979602 -24.6196
ltibia 39.2844
lfoot -15.8138 9.11471
ltoes -4.17544
36
root 10.1136 16.6192 -32.4188 -1.65581 -5.66247 1.63413
lowerback 8.99063 0.132176 -2.09569
upperback 0.949308 -0.0773626 -1.00019
thorax -4.0552 -0.012293 0.151032
lowerneck -10.2994 1.8335 -3.97654
upperneck -1.43745 2.83038 3.18112
head 1.20079 1.49369 1.80891
rclavicle -7.90169e-015 -7.15625e-015
rhumerus -32.9281 17.2878 -92.0406
rradius 40.3131
rwrist -19.6828
rhand -30.5487 21.5509
rfingers 7.12502
rthumb -3.84736 -8.39409
lclavicle -7.90169e-015 -7.15625e-015
lhumerus -41.271 20.7364 75.8087
lradius 23.1801
lwrist 13.9731
lhand -19.7595 15.8986
lfingers 7.12502
lthumb 6.57204 45.7767
rfemur -5.86206 5.72666 20.6057
rtibia 68.6443
rfoot 5.74096 -11.3283
rtoes -25.4353
lfemur -20.1422 0.979653 -25.2133
ltibia 38.432
lfoot -16.1905 9.0406
ltoes -5.02527
37
root 10.1251 16.6689 -32.2099 -1.88618 -5.42449 1.96749
lowerback 9.15308 0.148841 -2.46417
upperback 0.914438 -0.0995923 -1.03371
thorax -4.18141 -0.0160549 0.325843
lowerneck -9.38401 1.82472 -4.22858
upperneck -1.80491 2.81569 3.46043
head 0.919246 1.48808 1.91979
rclavicle 1.35795e-014 2.3059e-014
rhumerus -33.8325 16.395 -92.0764
rradius 39.0436
rwrist -19.2511
rhand -30.4142 21.32
rfingers 7.12502
rthumb -3.71743 -8.62732
lclavicle 1.35795e-014 2.3059e-014
lhumerus -40.1739 16.6616 79.1994
lradius 26.4107
lwrist 20.1353
lhand -24.4214 19.051
lfingers 7.12502
lthumb 2.0704 49.0207
rfemur -7.71658 5.4902 20.2793
rtibia 69.9342
rfoot 4.66148 -12.0367
rtoes -23.8955
lfemur -18.7037 0.748067 -25.6876
ltibia 37.5829
lfoot -16.4737 9.18622
ltoes -5.06068
38
root 10.1387 16.7126 -31.9974 -2.0687 -4.96402 2.16174
lowerback 9.21558 0.0497978 -2.65594
upperback 0.928798 -0.250915 -0.999843
thorax -4.19683 -0.0872646 0.487902
lowerneck -8.89458 1.80695 -4.35563
upperneck -1.84828 2.78749 3.46281
head 0.820813 1.47112 1.93202
rclavicle -1.36167e-014 1.27222e-014
rhumerus -34.7119 15.6817 -92.0563
rradius 37.7972
rwrist -18.8275
rhand -30.4289 21.0999
rfingers 7.12502
rthumb -3.73166 -8.84719
lclavicle -1.36167e-014 1.27222e-014
lhumerus -39.3891 14.2382 81.2627
lradius 29.2114
lwrist 22.8298
lhand -26.6488 21.2973
lfingers 7.12502
lthumb -0.0808616 51.277
rfemur -9.49426 5.00729 20.0936
rtibia 70.9243
rfoot 3.34251 -12.7327
rtoes -23.0323
lfemur -17.2592 0.43792 -26.0495
ltibia 36.6896
lfoot -16.71 9.34819
ltoes -5.79786
39
root 10.1592 16.7349 -31.7801 -2.21107 -4.41249 1.96633
lowerback 9.84486 -0.17799 -2.8964
upperback 0.542217 -0.579847 -0.373012
thorax -4.93455 -0.226226 1.32282
lowerneck -8.50692 1.86044 -5.09801
upperneck -1.37962 2.90841 3.28651
head 0.892426 1.52546 2.01061
rclavicle -2.94605e-015 9.61621e-015
rhumerus -36.2948 15.7827 -91.5876
rradius 36.7533
rwrist -18.5443
rhand -30.4486 21.1426
rfingers 7.12502
rthumb -3.75071 -8.80412
lclavicle -2.94605e-015 9.61621e-015
lhumerus -39.4929 13.9808 82.4976
lradius 31.3052
lwrist 21.6407
lhand -25.7702 21.1267
lfingers 7.12502
lthumb 0.76771 51.1051
rfemur -11.1597 4.31993 20.3096
rtibia 71.6299
rfoot 1.76591 -13.4467
rtoes -23.0867
lfemur -15.7424 0.213801 -26.0307
ltibia 35.7759
lfoot -16.8913 9.38131
ltoes -7.1313
40
root 10.1801 16.7462 -31.5667 -2.25672 -3.99529 1.61155
lowerback 8.97594 -0.450323 -2.22517
upperback 1.13687 -0.832129 -0.34987
thorax -3.82614 -0.382893 0.989584
lowerneck -8.65307 1.89514 -5.45867
upperneck -1.55548 2.99342 3.6994
head 0.849728 1.5789 2.21461
rclavicle -1.72974e-014 -4.09993e-015
rhumerus -36.1425 15.2331 -91.5319
rradius 35.7281
rwrist -18.5809
rhand -30.558 20.7359
rfingers 7.12502
rthumb -3.85633 -9.20897
lclavicle -1.72974e-014 -4.09993e-015
lhumerus -37.7707 13.8871 82.5466
lradius 32.3985
lwrist 17.4984
lhand -21.4921 18.1222
lfingers 7.12502
lthumb 4.89924 48.0456
rfemur -12.9106 3.87045 20.7026
rtibia 72.1581
rfoot 0.437868 -14.2848
rtoes -21.1361
lfemur -14.2722 -0.270434 -25.8223
ltibia 34.8979
lfoot -17.3082 9.39126
ltoes -6.29314
41
root 10.1999 16.7722 -31.3435 -2.30106 -3.86387 1.66053
lowerback 9.86009 -0.421184 -2.5862
upperback 0.406096 -0.848127 0.066337
thorax -5.07137 -0.357364 1.64486
lowerneck -8.32809 1.93522 -6.35374
upperneck -0.652127 3.09622 4.02466
head 1.06535 1.62734 2.49789
rclavicle 1.05729e-014 6.85807e-015
rhumerus -38.4227 15.024 -91.3084
rradius 35.3024
rwrist -18.8568
rhand -30.8321 20.2079
rfingers 7.12502
rthumb -4.12101 -9.73201
lclavicle 1.05729e-014 6.85807e-015
lhumerus -38.2897 10.9265 84.9739
lradius 35.9701
lwrist 21.499
lhand -26.1844 22.5403
lfingers 7.12502
lthumb 0.367607 52.5197
rfemur -14.5829 3.75947 20.6498
rtibia 72.455
rfoot -0.42972 -15.0087
rtoes -20.8369
lfemur -12.9375 -0.697977 -26.0546
ltibia 34.1425
lfoot -17.9625 9.6193
ltoes -4.99765
42
root 10.2224 16.8008 -31.1056 -2.5654 -4.08151 1.91015
lowerback 10.0998 -0.261818 -2.68994
upperback 0.228497 -0.660994 0.0137691
thorax -5.40078 -0.256542 1.62621
lowerneck -7.69807 1.88511 -6.20033
upperneck -0.674358 2.98163 3.85452
head 0.957317 1.56193 2.39542
rclavicle 6.09399e-015 -1.39149e-015
rhumerus -39.9635 14.0921 -91.2671
rradius 34.7677
rwrist -18.7107
rhand -30.8119 20.324
rfingers 7.12502
rthumb -4.10152 -9.6163
lclavicle 6.09399e-015 -1.39149e-015
lhumerus -38.1255 8.53462 86.1597
lradius 38.9649
lwrist 22.3877
lhand -27.033 23.9659
lfingers 7.12502
lthumb -0.451975 53.9452
rfemur -15.9237 3.94189 20.3786
rtibia 72.5036
rfoot -1.60833 -15.7146
rtoes -21.0901
lfemur -11.5279 -0.541268 -26.5017
ltibia 33.5558
lfoot -18.5611 9.92624
ltoes -5.20753
43
root 10.2275 16.8147 -30.9183 -2.34358 -3.02664 2.08797
lowerback 10.0852 -0.441706 -2.5094
upperback 0.102592 -0.902702 -0.374765
thorax -5.5224 -0.382395 1.15402
lowerneck -6.67112 1.67483 -4.99506
upperneck -1.32699 2.566 3.36701
head 0.608517 1.34205 1.97615
rclavicle -2.82647e-016 7.45443e-015
rhumerus -40.9447 12.1463 -91.343
rradius 34.149
rwrist -18.3383
rhand -30.372 20.6006
rfingers 7.12502
rthumb -3.67672 -9.34744
lclavicle -2.82647e-016 7.45443e-015
lhumerus -37.3025 5.98345 86.5692
lradius 41.3486
lwrist 22.0889
lhand -26.4959 20.7563
lfingers 7.12502
lthumb 0.0667873 50.736
rfemur -17.9072 3.01526 20.1801
rtibia 72.4518
rfoot -3.02354 -16.4051
rtoes -19.85
lfemur -10.9503 -1.01954 -26.8365
ltibia 33.2119
lfoot -18.5532 9.53572
ltoes -5.98608
44
root 10.2409 16.826 -30.7148 -2.09153 -2.12816 1.89378
lowerback 9.32595 -0.675288 -1.92772
upperback 0.407023 -1.13258 -0.584415
thorax -4.78314 -0.523436 0.627011
lowerneck -5.98113 1.53048 -4.36738
upperneck -2.24087 2.31489 3.22657
head 0.221398 1.21207 1.79212
rclavicle -3.56104e-015 -3.10601e-015
rhumerus -41.2652 10.6665 -91.28
rradius 33.485
rwrist -18.161
rhand -29.9905 20.1684
rfingers 7.12502
rthumb -3.30831 -9.78566
lclavicle -3.56104e-015 -3.10601e-015
lhumerus -35.9549 3.71254 87.0321
lradius 43.6848
lwrist 22.2738
lhand -26.5613 18.4637
lfingers 7.12502
lthumb 0.00361263 48.4434
rfemur -19.7759 2.26518 20.3954
rtibia 72.1426
rfoot -4.19196 -16.893
rtoes -19.1909
lfemur -10.3568 -1.72044 -26.8189
ltibia 33.0892
lfoot -18.6426 9.36254
ltoes -6.35167
45
root 10.2604 16.8267 -30.4943 -2.11177 -1.61799 1.57533
lowerback 8.71132 -0.964284 -1.61457
upperback 0.798979 -1.44999 -0.256502
thorax -4.02176 -0.693456 0.815866
lowerneck -5.67409 1.61745 -5.20358
upperneck -2.96991 2.47891 3.48792
head -0.077788 1.30418 2.01918
rclavicle 3.24889e-015 4.87022e-015
rhumerus -41.6128 10.5302 -90.8208
rradius 32.8758
rwrist -18.3086
rhand -29.6911 19.5536
rfingers 7.12502
rthumb -3.0191 -10.4048
lclavicle 3.24889e-015 4.87022e-015
lhumerus -34.8193 2.52994 87.8111
lradius 46.1634
lwrist 22.7249
lhand -26.8665 18.563
lfingers 7.12502
lthumb -0.291116 48.5426
rfemur -21.1223 1.87613 20.7778
rtibia 71.568
rfoot -5.57446 -17.6418
rtoes -19.9816
lfemur -9.44295 -2.28845 -26.676
ltibia 33.0291
lfoot -19.0899 9.44334
ltoes -6.52855
46
root 10.2764 16.82 -30.2827 -2.19988 -1.05215 1.46283
lowerback 8.82986 -1.32894 -1.69411
upperback 0.818237 -1.92378 0.225301
thorax -4.03668 -0.923131 1.41894
lowerneck -5.33252 1.78899 -6.28395
upperneck -3.32492 2.75206 3.55364
head -0.276403 1.45218 2.23283
rclavicle 1.35919e-014 -6.95746e-015
rhumerus -42.567 10.9021 -90.297
rradius 32.4413
rwrist -18.639
rhand -29.6635 19.5631
rfingers 7.12502
rthumb -2.99254 -10.3957
lclavicle 1.35919e-014 -6.95746e-015
lhumerus -34.2167 1.90968 88.5751
lradius 48.7216
lwrist 23.0786
lhand -27.0079 18.9129
lfingers 7.12502
lthumb -0.427707 48.8922
rfemur -22.41 1.45494 20.9199
rtibia 70.767
rfoot -6.85491 -18.2752
rtoes -20.331
lfemur -8.48161 -2.79542 -26.7345
ltibia 32.8644
lfoot -19.7253 9.52513
ltoes -6.90611
